<svg width="36" height="28" viewBox="0 0 36 28" fill="none" xmlns="http://www.w3.org/2000/svg">
<path d="M10.7846 22.2L8.33847 6.3L34.8385 8.74615L31.5769 22.2H10.7846Z" fill="#2BEDE1"/>
<path d="M8.33847 6.3L10.7846 22.2H31.5769L34.8385 8.74615L8.33847 6.3ZM8.33847 6.3L7.52309 2.22308L3.44617 1" stroke="black" stroke-width="0.5" stroke-linecap="round" stroke-linejoin="round"/>
<path d="M31.5769 22.2L30.7615 25.4616H11.6" stroke="black" stroke-width="0.5" stroke-linecap="round" stroke-linejoin="round"/>
<path d="M8.33846 24.2385L5.89231 8.33845L32.3923 10.7846L29.1308 24.2385H8.33846Z" fill="#EDB72B"/>
<path d="M5.89231 8.33845L8.33846 24.2385H29.1308L32.3923 10.7846L5.89231 8.33845ZM5.89231 8.33845L5.07692 4.26153L1 3.03845" stroke="black" stroke-width="0.5" stroke-linecap="round" stroke-linejoin="round"/>
<path d="M9.56152 8.74615L11.8912 24.2385M16.5505 24.2385L14.2209 9.15385M21.2099 24.2385L18.8802 9.56154M23.5395 10.3769L25.8692 24.2385" stroke="black" stroke-width="0.5" stroke-linecap="round" stroke-linejoin="round"/>
<path d="M29.1307 24.2385L28.3153 27.5H9.15381" stroke="black" stroke-width="0.5" stroke-linecap="round" stroke-linejoin="round"/>
</svg>
