<svg width="44" height="38" viewBox="0 0 44 38" fill="none" xmlns="http://www.w3.org/2000/svg">
<rect x="16.9558" y="3" width="16.3996" height="22.5649" transform="rotate(45 16.9558 3)" fill="#A0FF41" stroke="black" stroke-width="0.5" stroke-linejoin="round"/>
<rect x="16.9558" y="1" width="16.3996" height="22.5649" transform="rotate(45 16.9558 1)" fill="#FFF172" stroke="black" stroke-width="0.5" stroke-linejoin="round"/>
<path d="M28.5521 15.1525C34.3688 14.6017 37.63 14.2929 43.4468 13.7422L27.491 29.698C21.6742 30.2488 18.413 30.5576 12.5963 31.1083L28.5521 15.1525Z" fill="#FF2323" stroke="black" stroke-width="0.5" stroke-linejoin="round"/>
<path d="M15.7695 10.7757L20.0005 15.0066" stroke="black" stroke-width="0.5" stroke-linecap="round"/>
<path d="M13.1251 13.7726L17.356 18.0035" stroke="black" stroke-width="0.5" stroke-linecap="round"/>
<path d="M10.4808 16.7695L14.7118 21.0004" stroke="black" stroke-width="0.5" stroke-linecap="round"/>
<path d="M28.5521 13.5963C34.3688 13.0455 37.63 12.7367 43.4468 12.186L27.491 28.1418C21.6742 28.6925 18.413 29.0013 12.5963 29.5521L28.5521 13.5963Z" fill="#FFC123" stroke="black" stroke-width="0.5" stroke-linejoin="round"/>
</svg>
