<svg width="41" height="32" viewBox="0 0 41 32" fill="none" xmlns="http://www.w3.org/2000/svg">
<path d="M35.0248 15.9993C35.0248 19.2308 33.24 23.1422 30.3225 26.2519C27.4084 29.358 23.3988 31.6275 18.989 31.6275C14.5791 31.6275 10.5695 29.358 7.65546 26.2519C4.73798 23.1422 2.95312 19.2308 2.95312 15.9993C2.95312 14.392 3.39413 13.1117 4.1811 12.0886C4.97059 11.0623 6.12149 10.2778 7.56745 9.68878C10.4667 8.50774 14.4964 8.13437 18.989 8.13437C23.4815 8.13437 27.5112 8.50774 30.4105 9.68878C31.8565 10.2778 33.0074 11.0623 33.7969 12.0886C34.5838 13.1117 35.0248 14.392 35.0248 15.9993Z" fill="#2BEDE1" stroke="black" stroke-width="0.5"/>
<path d="M35.0249 15.0761C35.0249 17.252 33.3082 19.2849 30.3903 20.7886C27.4853 22.2856 23.4547 23.219 18.989 23.219C14.5232 23.219 10.4926 22.2856 7.58767 20.7886C4.6698 19.2849 2.95312 17.252 2.95312 15.0761C2.95312 12.9002 4.6698 10.8674 7.58767 9.3637C10.4926 7.86663 14.5232 6.93326 18.989 6.93326C23.4547 6.93326 27.4853 7.86663 30.3903 9.3637C33.3082 10.8674 35.0249 12.9002 35.0249 15.0761Z" fill="#F8CEEE" stroke="black" stroke-width="0.5"/>
<path d="M32.0302 16.6195C32.0302 18.3692 30.6487 20.0162 28.2728 21.2407C25.9097 22.4585 22.6278 23.2191 18.989 23.2191C15.3502 23.2191 12.0683 22.4585 9.70529 21.2407C7.32936 20.0162 5.94788 18.3692 5.94788 16.6195C5.94788 14.8698 7.32936 13.2228 9.70529 11.9984C12.0683 10.7806 15.3502 10.02 18.989 10.02C22.6278 10.02 25.9097 10.7806 28.2728 11.9984C30.6487 13.2228 32.0302 14.8698 32.0302 16.6195Z" fill="#EDB72B" stroke="black" stroke-width="0.5"/>
<path d="M30.836 8.88499C25.8291 7.29836 21.4898 10.3965 20.355 12.9761L22.727 13.6286C23.4019 11.9998 26.0032 9.25663 31.1916 10.6839C35.7776 11.9453 38.8392 8.64837 39.4429 6.65981L37.3871 6.09431C37.3871 6.09431 35.8428 10.4716 30.836 8.88499Z" fill="#2BEDE1" stroke="black" stroke-width="0.5"/>
<path d="M31.2353 10.5257C26.2284 8.93911 21.8891 12.0373 20.7543 14.6168L23.1263 15.2693C23.8012 13.6405 26.4025 10.8974 31.5909 12.3246C36.1769 13.5861 39.2384 10.2891 39.8422 8.30056L37.7864 7.73506C37.7864 7.73506 36.2421 12.1124 31.2353 10.5257Z" fill="black" stroke="black" stroke-width="0.5"/>
<path d="M7.24234 9.6844C5.9036 14.7631 9.21118 18.945 11.8434 19.9518L12.3786 17.5505C10.7186 16.9565 7.85094 14.493 9.02155 9.24078C10.0562 4.59839 6.61283 1.70251 4.59701 1.19721L4.13319 3.27828C4.13319 3.27828 8.58108 4.60568 7.24234 9.6844Z" fill="#2BEDE1" stroke="black" stroke-width="0.5"/>
<path d="M18.7477 20.2726H18.7454C18.8738 18.4163 20.4202 16.9503 22.3091 16.9503C24.198 16.9503 25.7444 18.4163 25.8728 20.2726H25.8705H25.8662H25.8619H25.8576H25.8533H25.8489H25.8445H25.84H25.8355H25.831H25.8264H25.8219H25.8173H25.8126H25.8079H25.8032H25.7985H25.7937H25.7889H25.7841H25.7792H25.7743H25.7694H25.7645H25.7595H25.7545H25.7494H25.7443H25.7392H25.7341H25.7289H25.7237H25.7185H25.7132H25.7079H25.7026H25.6972H25.6919H25.6865H25.681H25.6755H25.67H25.6645H25.6589H25.6534H25.6477H25.6421H25.6364H25.6307H25.625H25.6192H25.6134H25.6076H25.6017H25.5958H25.5899H25.584H25.578H25.572H25.566H25.5599H25.5538H25.5477H25.5416H25.5354H25.5292H25.523H25.5167H25.5104H25.5041H25.4978H25.4914H25.485H25.4786H25.4721H25.4656H25.4591H25.4526H25.446H25.4394H25.4328H25.4262H25.4195H25.4128H25.4061H25.3993H25.3925H25.3857H25.3789H25.372H25.3651H25.3582H25.3513H25.3443H25.3373H25.3303H25.3232H25.3161H25.309H25.3019H25.2947H25.2875H25.2803H25.2731H25.2658H25.2585H25.2512H25.2439H25.2365H25.2291H25.2217H25.2143H25.2068H25.1993H25.1918H25.1842H25.1767H25.1691H25.1614H25.1538H25.1461H25.1384H25.1307H25.1229H25.1152H25.1074H25.0995H25.0917H25.0838H25.0759H25.068H25.06H25.0521H25.0441H25.0361H25.028H25.0199H25.0118H25.0037H24.9956H24.9874H24.9792H24.971H24.9628H24.9545H24.9462H24.9379H24.9296H24.9212H24.9129H24.9045H24.896H24.8876H24.8791H24.8706H24.8621H24.8535H24.845H24.8364H24.8278H24.8191H24.8105H24.8018H24.7931H24.7844H24.7756H24.7669H24.7581H24.7493H24.7404H24.7316H24.7227H24.7138H24.7048H24.6959H24.6869H24.6779H24.6689H24.6599H24.6508H24.6417H24.6326H24.6235H24.6144H24.6052H24.596H24.5868H24.5776H24.5683H24.5591H24.5498H24.5405H24.5311H24.5218H24.5124H24.503H24.4936H24.4841H24.4747H24.4652H24.4557H24.4462H24.4366H24.4271H24.4175H24.4079H24.3983H24.3886H24.3789H24.3693H24.3596H24.3498H24.3401H24.3303H24.3205H24.3107H24.3009H24.2911H24.2812H24.2713H24.2614H24.2515H24.2416H24.2316H24.2217H24.2117H24.2016H24.1916H24.1816H24.1715H24.1614H24.1513H24.1412H24.131H24.1209H24.1107H24.1005H24.0902H24.08H24.0698H24.0595H24.0492H24.0389H24.0286H24.0182H24.0078H23.9975H23.9871H23.9766H23.9662H23.9558H23.9453H23.9348H23.9243H23.9138H23.9032H23.8927H23.8821H23.8715H23.8609H23.8503H23.8396H23.829H23.8183H23.8076H23.7969H23.7862H23.7754H23.7647H23.7539H23.7431H23.7323H23.7215H23.7106H23.6998H23.6889H23.678H23.6671H23.6562H23.6452H23.6343H23.6233H23.6123H23.6013H23.5903H23.5793H23.5682H23.5572H23.5461H23.535H23.5239H23.5128H23.5016H23.4905H23.4793H23.4681H23.4569H23.4457H23.4345H23.4232H23.412H23.4007H23.3894H23.3781H23.3668H23.3555H23.3441H23.3328H23.3214H23.31H23.2986H23.2872H23.2758H23.2643H23.2529H23.2414H23.2299H23.2184H23.2069H23.1954H23.1839H23.1723H23.1607H23.1492H23.1376H23.126H23.1143H23.1027H23.0911H23.0794H23.0677H23.0561H23.0444H23.0327H23.0209H23.0092H22.9975H22.9857H22.9739H22.9621H22.9503H22.9385H22.9267H22.9149H22.903H22.8912H22.8793H22.8674H22.8555H22.8436H22.8317H22.8198H22.8079H22.7959H22.7839H22.772H22.76H22.748H22.736H22.724H22.7119H22.6999H22.6878H22.6758H22.6637H22.6516H22.6395H22.6274H22.6153H22.6032H22.591H22.5789H22.5667H22.5546H22.5424H22.5302H22.518H22.5058H22.4936H22.4813H22.4691H22.4568H22.4446H22.4323H22.42H22.4077H22.3954H22.3831H22.3708H22.3585H22.3462H22.3338H22.3215H22.3091H22.2967H22.2844H22.272H22.2597H22.2474H22.235H22.2227H22.2104H22.1981H22.1859H22.1736H22.1613H22.1491H22.1368H22.1246H22.1124H22.1002H22.088H22.0758H22.0636H22.0515H22.0393H22.0271H22.015H22.0029H21.9908H21.9787H21.9666H21.9545H21.9424H21.9303H21.9183H21.9062H21.8942H21.8822H21.8702H21.8582H21.8462H21.8342H21.8223H21.8103H21.7984H21.7865H21.7745H21.7626H21.7507H21.7389H21.727H21.7151H21.7033H21.6915H21.6796H21.6678H21.656H21.6443H21.6325H21.6207H21.609H21.5972H21.5855H21.5738H21.5621H21.5504H21.5388H21.5271H21.5155H21.5038H21.4922H21.4806H21.469H21.4574H21.4459H21.4343H21.4228H21.4113H21.3998H21.3883H21.3768H21.3653H21.3538H21.3424H21.331H21.3196H21.3082H21.2968H21.2854H21.274H21.2627H21.2514H21.2401H21.2288H21.2175H21.2062H21.1949H21.1837H21.1725H21.1613H21.1501H21.1389H21.1277H21.1165H21.1054H21.0943H21.0832H21.0721H21.061H21.0499H21.0389H21.0279H21.0169H21.0059H20.9949H20.9839H20.9729H20.962H20.9511H20.9402H20.9293H20.9184H20.9076H20.8967H20.8859H20.8751H20.8643H20.8535H20.8428H20.832H20.8213H20.8106H20.7999H20.7892H20.7786H20.7679H20.7573H20.7467H20.7361H20.7255H20.715H20.7044H20.6939H20.6834H20.6729H20.6624H20.652H20.6415H20.6311H20.6207H20.6103H20.6H20.5896H20.5793H20.569H20.5587H20.5484H20.5382H20.5279H20.5177H20.5075H20.4973H20.4872H20.477H20.4669H20.4568H20.4467H20.4366H20.4266H20.4165H20.4065H20.3965H20.3866H20.3766H20.3667H20.3567H20.3468H20.337H20.3271H20.3173H20.3074H20.2976H20.2879H20.2781H20.2684H20.2586H20.2489H20.2392H20.2296H20.2199H20.2103H20.2007H20.1911H20.1816H20.172H20.1625H20.153H20.1435H20.1341H20.1246H20.1152H20.1058H20.0964H20.0871H20.0777H20.0684H20.0591H20.0499H20.0406H20.0314H20.0222H20.013H20.0038H19.9947H19.9855H19.9764H19.9674H19.9583H19.9493H19.9403H19.9313H19.9223H19.9133H19.9044H19.8955H19.8866H19.8778H19.8689H19.8601H19.8513H19.8426H19.8338H19.8251H19.8164H19.8077H19.799H19.7904H19.7818H19.7732H19.7646H19.7561H19.7476H19.7391H19.7306H19.7222H19.7137H19.7053H19.6969H19.6886H19.6803H19.6719H19.6637H19.6554H19.6472H19.639H19.6308H19.6226H19.6145H19.6063H19.5982H19.5902H19.5821H19.5741H19.5661H19.5581H19.5502H19.5423H19.5344H19.5265H19.5186H19.5108H19.503H19.4952H19.4875H19.4798H19.4721H19.4644H19.4568H19.4491H19.4415H19.434H19.4264H19.4189H19.4114H19.4039H19.3965H19.3891H19.3817H19.3743H19.367H19.3596H19.3523H19.3451H19.3378H19.3306H19.3235H19.3163H19.3092H19.3021H19.295H19.2879H19.2809H19.2739H19.2669H19.26H19.2531H19.2462H19.2393H19.2325H19.2257H19.2189H19.2121H19.2054H19.1987H19.192H19.1854H19.1787H19.1721H19.1656H19.159H19.1525H19.1461H19.1396H19.1332H19.1268H19.1204H19.1141H19.1078H19.1015H19.0952H19.089H19.0828H19.0766H19.0705H19.0644H19.0583H19.0522H19.0462H19.0402H19.0342H19.0283H19.0224H19.0165H19.0106H19.0048H18.999H18.9932H18.9875H18.9818H18.9761H18.9704H18.9648H18.9592H18.9537H18.9481H18.9426H18.9372H18.9317H18.9263H18.9209H18.9156H18.9103H18.905H18.8997H18.8945H18.8893H18.8841H18.879H18.8739H18.8688H18.8637H18.8587H18.8537H18.8488H18.8439H18.839H18.8341H18.8293H18.8245H18.8197H18.815H18.8103H18.8056H18.8009H18.7963H18.7917H18.7872H18.7827H18.7782H18.7737H18.7693H18.7649H18.7606H18.7562H18.7519H18.7477Z" fill="#8E3AE2" stroke="black" stroke-width="0.5"/>
<path d="M12.4393 14.7434H12.4374C12.5634 13.3971 13.6966 12.3433 15.0759 12.3433C16.4552 12.3433 17.5884 13.3971 17.7144 14.7434H17.7125H17.7088H17.7051H17.7014H17.6976H17.6938H17.69H17.6862H17.6823H17.6784H17.6745H17.6706H17.6667H17.6627H17.6587H17.6547H17.6507H17.6466H17.6425H17.6384H17.6343H17.6301H17.626H17.6218H17.6175H17.6133H17.609H17.6048H17.6004H17.5961H17.5918H17.5874H17.583H17.5786H17.5741H17.5697H17.5652H17.5607H17.5561H17.5516H17.547H17.5424H17.5378H17.5332H17.5285H17.5238H17.5191H17.5144H17.5096H17.5049H17.5001H17.4953H17.4904H17.4856H17.4807H17.4758H17.4709H17.4659H17.461H17.456H17.451H17.446H17.4409H17.4359H17.4308H17.4257H17.4206H17.4154H17.4102H17.4051H17.3998H17.3946H17.3894H17.3841H17.3788H17.3735H17.3682H17.3628H17.3574H17.352H17.3466H17.3412H17.3358H17.3303H17.3248H17.3193H17.3137H17.3082H17.3026H17.297H17.2914H17.2858H17.2801H17.2745H17.2688H17.2631H17.2574H17.2516H17.2458H17.2401H17.2343H17.2284H17.2226H17.2167H17.2109H17.205H17.199H17.1931H17.1871H17.1812H17.1752H17.1692H17.1631H17.1571H17.151H17.1449H17.1388H17.1327H17.1266H17.1204H17.1142H17.108H17.1018H17.0956H17.0893H17.0831H17.0768H17.0705H17.0642H17.0578H17.0515H17.0451H17.0387H17.0323H17.0259H17.0194H17.0129H17.0065H17H16.9934H16.9869H16.9804H16.9738H16.9672H16.9606H16.954H16.9473H16.9407H16.934H16.9273H16.9206H16.9139H16.9072H16.9004H16.8936H16.8868H16.88H16.8732H16.8664H16.8595H16.8526H16.8458H16.8388H16.8319H16.825H16.818H16.8111H16.8041H16.7971H16.7901H16.783H16.776H16.7689H16.7618H16.7547H16.7476H16.7405H16.7333H16.7262H16.719H16.7118H16.7046H16.6974H16.6901H16.6829H16.6756H16.6683H16.661H16.6537H16.6464H16.639H16.6317H16.6243H16.6169H16.6095H16.6021H16.5946H16.5872H16.5797H16.5722H16.5647H16.5572H16.5497H16.5421H16.5346H16.527H16.5194H16.5118H16.5042H16.4966H16.489H16.4813H16.4736H16.4659H16.4582H16.4505H16.4428H16.4351H16.4273H16.4195H16.4118H16.404H16.3962H16.3883H16.3805H16.3727H16.3648H16.3569H16.349H16.3411H16.3332H16.3253H16.3173H16.3094H16.3014H16.2934H16.2854H16.2774H16.2694H16.2613H16.2533H16.2452H16.2372H16.2291H16.221H16.2129H16.2047H16.1966H16.1884H16.1803H16.1721H16.1639H16.1557H16.1475H16.1393H16.131H16.1228H16.1145H16.1063H16.098H16.0897H16.0814H16.073H16.0647H16.0564H16.048H16.0396H16.0312H16.0229H16.0145H16.006H15.9976H15.9892H15.9807H15.9723H15.9638H15.9553H15.9468H15.9383H15.9298H15.9212H15.9127H15.9041H15.8956H15.887H15.8784H15.8698H15.8612H15.8526H15.844H15.8353H15.8267H15.818H15.8093H15.8007H15.792H15.7833H15.7746H15.7658H15.7571H15.7484H15.7396H15.7308H15.7221H15.7133H15.7045H15.6957H15.6869H15.678H15.6692H15.6604H15.6515H15.6426H15.6338H15.6249H15.616H15.6071H15.5982H15.5893H15.5803H15.5714H15.5624H15.5535H15.5445H15.5355H15.5265H15.5175H15.5085H15.4995H15.4905H15.4815H15.4724H15.4634H15.4543H15.4453H15.4362H15.4271H15.418H15.4089H15.3998H15.3907H15.3815H15.3724H15.3633H15.3541H15.3449H15.3358H15.3266H15.3174H15.3082H15.299H15.2898H15.2806H15.2714H15.2621H15.2529H15.2436H15.2344H15.2251H15.2159H15.2066H15.1973H15.188H15.1787H15.1694H15.1601H15.1507H15.1414H15.1321H15.1227H15.1134H15.104H15.0946H15.0853H15.0759H15.0665H15.0571H15.0478H15.0384H15.029H15.0197H15.0104H15.001H14.9917H14.9824H14.9731H14.9638H14.9545H14.9452H14.9359H14.9266H14.9174H14.9081H14.8989H14.8896H14.8804H14.8712H14.862H14.8528H14.8435H14.8344H14.8252H14.816H14.8068H14.7977H14.7885H14.7794H14.7702H14.7611H14.752H14.7429H14.7338H14.7247H14.7156H14.7065H14.6975H14.6884H14.6793H14.6703H14.6613H14.6522H14.6432H14.6342H14.6252H14.6162H14.6073H14.5983H14.5893H14.5804H14.5715H14.5625H14.5536H14.5447H14.5358H14.5269H14.518H14.5091H14.5003H14.4914H14.4826H14.4737H14.4649H14.4561H14.4473H14.4385H14.4297H14.4209H14.4122H14.4034H14.3947H14.3859H14.3772H14.3685H14.3598H14.3511H14.3424H14.3338H14.3251H14.3164H14.3078H14.2992H14.2906H14.2819H14.2734H14.2648H14.2562H14.2476H14.2391H14.2305H14.222H14.2135H14.205H14.1965H14.188H14.1795H14.1711H14.1626H14.1542H14.1457H14.1373H14.1289H14.1205H14.1121H14.1038H14.0954H14.0871H14.0787H14.0704H14.0621H14.0538H14.0455H14.0372H14.029H14.0207H14.0125H14.0043H13.9961H13.9879H13.9797H13.9715H13.9633H13.9552H13.947H13.9389H13.9308H13.9227H13.9146H13.9065H13.8985H13.8904H13.8824H13.8744H13.8664H13.8584H13.8504H13.8424H13.8344H13.8265H13.8186H13.8107H13.8027H13.7949H13.787H13.7791H13.7713H13.7634H13.7556H13.7478H13.74H13.7322H13.7245H13.7167H13.709H13.7012H13.6935H13.6858H13.6781H13.6705H13.6628H13.6552H13.6475H13.6399H13.6323H13.6248H13.6172H13.6096H13.6021H13.5946H13.5871H13.5796H13.5721H13.5646H13.5572H13.5497H13.5423H13.5349H13.5275H13.5201H13.5128H13.5054H13.4981H13.4908H13.4835H13.4762H13.4689H13.4616H13.4544H13.4472H13.44H13.4328H13.4256H13.4184H13.4113H13.4042H13.3971H13.39H13.3829H13.3758H13.3688H13.3617H13.3547H13.3477H13.3407H13.3337H13.3268H13.3198H13.3129H13.306H13.2991H13.2923H13.2854H13.2786H13.2717H13.2649H13.2581H13.2514H13.2446H13.2379H13.2312H13.2244H13.2178H13.2111H13.2044H13.1978H13.1912H13.1846H13.178H13.1714H13.1649H13.1583H13.1518H13.1453H13.1388H13.1324H13.1259H13.1195H13.1131H13.1067H13.1003H13.094H13.0876H13.0813H13.075H13.0687H13.0624H13.0562H13.0499H13.0437H13.0375H13.0314H13.0252H13.0191H13.0129H13.0068H13.0007H12.9947H12.9886H12.9826H12.9766H12.9706H12.9646H12.9587H12.9527H12.9468H12.9409H12.935H12.9292H12.9233H12.9175H12.9117H12.9059H12.9002H12.8944H12.8887H12.883H12.8773H12.8716H12.866H12.8603H12.8547H12.8491H12.8436H12.838H12.8325H12.827H12.8215H12.816H12.8106H12.8051H12.7997H12.7943H12.789H12.7836H12.7783H12.773H12.7677H12.7624H12.7572H12.7519H12.7467H12.7415H12.7364H12.7312H12.7261H12.721H12.7159H12.7108H12.7058H12.7008H12.6958H12.6908H12.6858H12.6809H12.676H12.6711H12.6662H12.6613H12.6565H12.6517H12.6469H12.6421H12.6374H12.6327H12.628H12.6233H12.6186H12.614H12.6094H12.6048H12.6002H12.5956H12.5911H12.5866H12.5821H12.5776H12.5732H12.5688H12.5644H12.56H12.5557H12.5513H12.547H12.5427H12.5385H12.5342H12.53H12.5258H12.5216H12.5175H12.5134H12.5092H12.5052H12.5011H12.4971H12.4931H12.4891H12.4851H12.4811H12.4772H12.4733H12.4694H12.4656H12.4618H12.458H12.4542H12.4504H12.4467H12.443H12.4393Z" fill="#8E3AE2" stroke="black" stroke-width="0.5"/>
</svg>
